<?xml version="1.0" encoding="utf-8"?>
<!-- Generator: Adobe Illustrator 25.0.0, SVG Export Plug-In . SVG Version: 6.00 Build 0)  -->
<svg version="1.1" id="Capa_1" xmlns="http://www.w3.org/2000/svg" xmlns:xlink="http://www.w3.org/1999/xlink" x="0px" y="0px"
	 viewBox="0 0 1000 500" style="enable-background:new 0 0 1000 500;" xml:space="preserve">
<style type="text/css">
	.st0{fill:#43200A;}
</style>
<path class="st0" d="M262.7,306.6c1.7-4.2,2.9-8.2,4.8-11.9c11.9-22.5,14.4-44.8-0.3-67.1c-7-10.5-20.4-15.9-32.6-12.9
	c-17.5,4.3-30.9,14.7-42.3,28.3c-2,2.5-3.7,5.2-5.7,7.7c-6.2,7.6-9.6,7.4-16,0.1c-6.3-7.2-12.6-14.5-19.6-20.9
	c-5.1-4.6-11.2-8.5-17.5-11.4c-22.8-10.6-42.3-2.3-50,21.7c-5.9,18.4-4.6,36.5,5.1,53.7c6.7,11.8,4.9,14.4-8.5,14
	c-38.2-1.1-66.1-32.7-62.9-70.9c0.9-11.3,7.4-16.9,17.3-18.6c8.3-1.4,10.8-5.9,12.2-13.3c7.1-35.8,24.4-65.1,59-79.8
	c43.2-18.4,87.7-21.3,132.7-5.4c26.8,9.5,48,25.3,60.5,51c5,10.2,7.6,21.6,10.6,32.6c2.3,8.3,4.6,14.9,15.5,14.6
	c6.9-0.2,11.7,4.3,13.4,11.5C348.7,273.9,309.3,315.3,262.7,306.6z"/>
<path class="st0" d="M672.3,327.9c16.4-1.5,20.8-3.8,28.2-14c43.7,42.5,95.2,53.2,152.9,36.8c31-8.8,56.7-25.9,71.1-55.4
	c6.8-14,10.1-30.1,12.9-45.6c3.1-16.9,12.8-28,27.5-27.6c15.2,0.4,27.9,13.1,28.9,29.1c1.6,24.8-7,46.5-21.6,65.9
	c-33.4,44.3-79.5,66.8-133.1,75.4c-38.2,6.1-75.2,1.3-110.2-15.5C705.9,366.1,687.5,349.7,672.3,327.9z"/>
<path class="st0" d="M441.4,301.6c-26.3,17.8-55.9,15.8-74.5-7.2c-18.7-23.1-18.5-47.6,0.9-70.9c18.4-22,51.5-23.1,73.3-6.1
	c0.9-2,1.2-4.6,2.6-5.5c3.9-2.7,9.2-7.4,12.3-6.3c4.4,1.5,10.2,7.3,10.4,11.4c0.9,28.8,0.9,57.7,0,86.5c-0.1,4.1-6,10.3-10.3,11.4
	c-3.5,0.9-8.7-4.2-12.7-7.2C442.1,306.6,442.1,303.8,441.4,301.6z M408,287.3c15.7,0,28.4-12.1,28.5-27.3
	c0.1-15.7-12.4-28.5-28.3-28.7c-16-0.3-29.5,13.1-29.2,28.9C379.4,275.1,392.5,287.3,408,287.3z"/>
<path class="st0" d="M666,217.6c4.8-12.4,12.7-16.5,20-9.4c3.1,3.1,4.9,8.9,5,13.5c0.5,25.6,0.3,51.2,0.2,76.7
	c0,10.5-4.4,16.7-11.7,17c-9.7,0.4-11.5-7.1-13.3-14.3c-31.2,21.4-59.2,11.4-76.4-8.1c-15.5-17.6-15.1-48.7,0.5-67.5
	C604.9,208,634.4,195.9,666,217.6z M631.8,287.5c16.1,0.1,29.2-12.3,29.2-27.8c0-15.4-12.8-28.3-28.6-28.6
	c-16.1-0.3-28.6,11.8-28.9,27.9C603.3,275,615.6,287.4,631.8,287.5z"/>
<path class="st0" d="M805.2,259.6c0-33.7,22.2-55.6,56-55.5c30.8,0.1,55.8,25.3,55.8,56.1c0,30.5-25.5,55.6-56.4,55.5
	C829.1,315.7,805.2,291.4,805.2,259.6z M861,231.1c-18-0.1-28.7,10.5-28.8,28.3c-0.1,17,11.7,29.9,28.4,29.3
	c18.8-0.7,27.8-9.3,29.2-28.4C891,244.4,877.1,231.1,861,231.1z"/>
<path class="st0" d="M627.4,192.9c-9.6,2.9-18.4,5.5-26.8,8c-12.2-10.3-24.2-21.7-37.5-31.3c-25.7-18.5-55.3-23.9-86.4-22.2
	c-40.3,2.2-77.4,15.1-113,33.2c-13.9,7.1-27.6,14.6-41.8,22.2c-0.8-2.7-1.7-5.9-2.9-10.2c8.7-5.4,17.3-11.3,26.3-16.4
	c39.1-22.2,79.7-40.5,124.9-46c59.8-7.3,111.2,9.1,151.9,54.9c1.1,1.2,1.9,2.6,2.8,3.9C625.9,190.4,626.7,191.7,627.4,192.9z"/>
<path class="st0" d="M533.5,204c13.9,0.2,26.4,4.4,36.8,13.9c6.8,6.2,7.8,14.6,2.1,20.3c-6,6-12.2,5-18.8,0
	c-20.5-15.6-46.8-5.9-49.8,18.1c-1.4,11.2,3.3,20.4,11.7,26.9c9.2,7,20,8.1,30.8,3c2.3-1.1,4.4-2.5,6.6-4c8.5-5.7,15.6-5.4,20.1,1
	c4.4,6.3,2.2,15.1-5.3,20.9c-31.5,24.5-78.4,8.1-88.6-31C470,238.6,497.2,204,533.5,204z"/>
<path class="st0" d="M759.7,204.4c12.4,1.4,25.8,4.6,36,15.9c5.5,6.1,5.4,12,0.1,17.9c-5.3,6-11.4,5.9-17,1
	c-8.7-7.5-18.5-10.2-29.4-7.3c-15.7,4.1-24.7,21.2-19.6,36.2c5.8,17,23,25.3,39,18.5c3.8-1.6,7.1-4.3,10.6-6.5
	c5.6-3.6,10.9-3.4,15.6,1.4c5,5,5.7,10.3,1.7,16.4c-8,12.2-31.8,19.8-50.4,15.8c-26.5-5.7-46.6-31.9-43.8-57.3
	C705.7,226,728.8,204.4,759.7,204.4z"/>
<path class="st0" d="M142.1,269.2c-0.1,11.5-4.9,15.9-16.8,15.7c-10.5-0.2-15.7-5.7-15.6-16.3c0.2-9.1,6.9-16,15.6-16.1
	C135.5,252.3,142.1,258.9,142.1,269.2z"/>
<path class="st0" d="M230.9,284.9c-11.6,0-16.3-4.7-16.1-16.2c0.1-10.1,6.4-16.5,16-16.2c9.4,0.2,15.8,6.9,15.8,16.6
	C246.5,280,241.7,284.9,230.9,284.9z"/>
</svg>
